# xmcd CD database file
#
# Track frame offsets:
#	150
#	79502
#	130106
#	157716
#
# Disc length: 2659 seconds
#
# Revision: 0
# Processed by: cddbd v1.4PL0 Copyright (c) Steve Scherf et al.
# Submitted via: CDex 1.51
#
DISCID=1d0a6104
DTITLE=Eric Dolphy - June 11, 1964
DYEAR=1964
DGENRE=Jazz
TTITLE0=Springtime
TTITLE1=245
TTITLE2=GW
TTITLE3=Serene
EXTD=YEAR: 1964
EXTT0=
EXTT1=
EXTT2=
EXTT3=
PLAYORDER=
